<svg xmlns="http://www.w3.org/2000/svg" width="660" height="450" viewBox="0 0 660 450" role="img" aria-labelledby="title desc">
<title id="title">circle 04: 046</title>
<desc id="desc">one of the twenty certified unit circles</desc>
<rect width="660" height="450" fill="#fbf8f1"/>
<text x="24" y="32" font-family="Georgia,serif" font-size="22" fill="#252321">circle 04: 046</text>
<text x="24" y="55" font-family="system-ui,sans-serif" font-size="12" fill="#6f6a62">one of the twenty certified unit circles</text>
<circle cx="352.448" cy="252.439" r="68.259" fill="none" stroke="#d0c7b6" stroke-width="0.9" opacity="0.42"/>
<circle cx="260.861" cy="153.782" r="68.259" fill="none" stroke="#d0c7b6" stroke-width="0.9" opacity="0.42"/>
<circle cx="383.235" cy="195.854" r="68.259" fill="none" stroke="#d0c7b6" stroke-width="0.9" opacity="0.42"/>
<circle cx="282.451" cy="255.396" r="68.259" fill="none" stroke="#9d4b35" stroke-width="2.2" opacity="0.95"/>
<circle cx="377.626" cy="168.283" r="68.259" fill="none" stroke="#d0c7b6" stroke-width="0.9" opacity="0.42"/>
<circle cx="374.284" cy="229.178" r="68.259" fill="none" stroke="#d0c7b6" stroke-width="0.9" opacity="0.42"/>
<circle cx="255.594" cy="229.044" r="68.259" fill="none" stroke="#d0c7b6" stroke-width="0.9" opacity="0.42"/>
<circle cx="327.270" cy="222.486" r="68.259" fill="none" stroke="#d0c7b6" stroke-width="0.9" opacity="0.42"/>
<circle cx="391.767" cy="127.150" r="68.259" fill="none" stroke="#d0c7b6" stroke-width="0.9" opacity="0.42"/>
<circle cx="404.406" cy="262.089" r="68.259" fill="none" stroke="#d0c7b6" stroke-width="0.9" opacity="0.42"/>
<circle cx="330.612" cy="161.590" r="68.259" fill="none" stroke="#d0c7b6" stroke-width="0.9" opacity="0.42"/>
<circle cx="321.661" cy="194.915" r="68.259" fill="none" stroke="#d0c7b6" stroke-width="0.9" opacity="0.42"/>
<circle cx="383.158" cy="263.308" r="68.259" fill="none" stroke="#d0c7b6" stroke-width="0.9" opacity="0.42"/>
<circle cx="343.606" cy="220.956" r="68.259" fill="none" stroke="#d0c7b6" stroke-width="0.9" opacity="0.42"/>
<circle cx="269.735" cy="187.911" r="68.259" fill="none" stroke="#d0c7b6" stroke-width="0.9" opacity="0.42"/>
<circle cx="290.983" cy="186.692" r="68.259" fill="none" stroke="#d0c7b6" stroke-width="0.9" opacity="0.42"/>
<circle cx="338.339" cy="296.218" r="68.259" fill="none" stroke="#d0c7b6" stroke-width="0.9" opacity="0.42"/>
<circle cx="282.374" cy="322.850" r="68.259" fill="none" stroke="#d0c7b6" stroke-width="0.9" opacity="0.42"/>
<circle cx="316.749" cy="194.604" r="68.259" fill="none" stroke="#d0c7b6" stroke-width="0.9" opacity="0.42"/>
<circle cx="281.599" cy="203.254" r="68.259" fill="none" stroke="#d0c7b6" stroke-width="0.9" opacity="0.42"/>
<circle cx="314.977" cy="195.384" r="5.4" fill="#252321"/>
<circle cx="314.977" cy="195.384" r="8.5" fill="none" stroke="#fbf8f1" stroke-width="2.5" opacity="0.9"/>
<text x="323.977" y="188.384" font-family="ui-monospace, SFMono-Regular, Menlo, monospace" font-size="12" fill="#252321">0</text>
<circle cx="389.918" cy="195.384" r="5.4" fill="#252321"/>
<circle cx="389.918" cy="195.384" r="8.5" fill="none" stroke="#fbf8f1" stroke-width="2.5" opacity="0.9"/>
<text x="398.918" y="188.384" font-family="ui-monospace, SFMono-Regular, Menlo, monospace" font-size="12" fill="#252321">1</text>
<circle cx="284.223" cy="254.616" r="5.4" fill="#252321"/>
<circle cx="284.223" cy="254.616" r="8.5" fill="none" stroke="#fbf8f1" stroke-width="2.5" opacity="0.9"/>
<text x="293.223" y="247.616" font-family="ui-monospace, SFMono-Regular, Menlo, monospace" font-size="12" fill="#252321">2</text>
<circle cx="329.118" cy="154.252" r="5.4" fill="#252321"/>
<circle cx="329.118" cy="154.252" r="8.5" fill="none" stroke="#fbf8f1" stroke-width="2.5" opacity="0.9"/>
<text x="338.118" y="147.252" font-family="ui-monospace, SFMono-Regular, Menlo, monospace" font-size="12" fill="#252321">3</text>
<circle cx="345.099" cy="228.294" r="5.4" fill="#252321"/>
<circle cx="345.099" cy="228.294" r="8.5" fill="none" stroke="#fbf8f1" stroke-width="2.5" opacity="0.9"/>
<text x="354.099" y="221.294" font-family="ui-monospace, SFMono-Regular, Menlo, monospace" font-size="12" fill="#252321">4</text>
<circle cx="314.901" cy="262.838" r="5.4" fill="#252321"/>
<circle cx="314.901" cy="262.838" r="8.5" fill="none" stroke="#fbf8f1" stroke-width="2.5" opacity="0.9"/>
<text x="323.901" y="255.838" font-family="ui-monospace, SFMono-Regular, Menlo, monospace" font-size="12" fill="#252321">5</text>
<circle cx="341.757" cy="289.190" r="5.4" fill="#252321"/>
<circle cx="341.757" cy="289.190" r="8.5" fill="none" stroke="#fbf8f1" stroke-width="2.5" opacity="0.9"/>
<text x="350.757" y="282.190" font-family="ui-monospace, SFMono-Regular, Menlo, monospace" font-size="12" fill="#252321">6</text>
<circle cx="323.509" cy="126.680" r="5.4" fill="#252321"/>
<circle cx="323.509" cy="126.680" r="8.5" fill="none" stroke="#fbf8f1" stroke-width="2.5" opacity="0.9"/>
<text x="332.509" y="119.680" font-family="ui-monospace, SFMono-Regular, Menlo, monospace" font-size="12" fill="#252321">7</text>
<circle cx="323.852" cy="229.514" r="5.4" fill="#252321"/>
<circle cx="323.852" cy="229.514" r="8.5" fill="none" stroke="#fbf8f1" stroke-width="2.5" opacity="0.9"/>
<text x="332.852" y="222.514" font-family="ui-monospace, SFMono-Regular, Menlo, monospace" font-size="12" fill="#252321">8</text>
</svg>